<mxfile host="app.diagrams.net" modified="2021-05-13T22:46:38.302Z" agent="5.0 (Windows NT 10.0; Win64; x64) AppleWebKit/537.36 (KHTML, like Gecko) Chrome/90.0.4430.212 Safari/537.36" etag="m7-baDNu_KauiMxjDvj3" version="14.6.13" type="github">
  <diagram id="B9OAxdl7V-Wfm9QbLPq6" name="Page-1">
    <mxGraphModel dx="1422" dy="1894" grid="1" gridSize="10" guides="1" tooltips="1" connect="1" arrows="1" fold="1" page="1" pageScale="1" pageWidth="850" pageHeight="1100" math="0" shadow="0">
      <root>
        <mxCell id="0" />
        <mxCell id="1" parent="0" />
        <mxCell id="uj3ujpY_ph7ZhqIRhuou-1" value="" style="strokeWidth=1;shadow=0;dashed=0;align=center;html=1;shape=mxgraph.mockup.containers.browserWindow;rSize=0;strokeColor=#666666;strokeColor2=#008cff;strokeColor3=#c4c4c4;mainText=,;recursiveResize=0;" vertex="1" parent="1">
          <mxGeometry x="10" y="10" width="830" height="790" as="geometry" />
        </mxCell>
        <mxCell id="uj3ujpY_ph7ZhqIRhuou-2" value="Page 1" style="strokeWidth=1;shadow=0;dashed=0;align=center;html=1;shape=mxgraph.mockup.containers.anchor;fontSize=17;fontColor=#666666;align=left;" vertex="1" parent="uj3ujpY_ph7ZhqIRhuou-1">
          <mxGeometry x="60" y="12" width="110" height="26" as="geometry" />
        </mxCell>
        <mxCell id="uj3ujpY_ph7ZhqIRhuou-3" value="https://www.draw.io" style="strokeWidth=1;shadow=0;dashed=0;align=center;html=1;shape=mxgraph.mockup.containers.anchor;rSize=0;fontSize=17;fontColor=#666666;align=left;" vertex="1" parent="uj3ujpY_ph7ZhqIRhuou-1">
          <mxGeometry x="130" y="60" width="250" height="26" as="geometry" />
        </mxCell>
        <mxCell id="uj3ujpY_ph7ZhqIRhuou-5" style="edgeStyle=orthogonalEdgeStyle;rounded=0;orthogonalLoop=1;jettySize=auto;html=1;" edge="1" parent="uj3ujpY_ph7ZhqIRhuou-1" source="uj3ujpY_ph7ZhqIRhuou-4" target="uj3ujpY_ph7ZhqIRhuou-1">
          <mxGeometry relative="1" as="geometry" />
        </mxCell>
        <mxCell id="uj3ujpY_ph7ZhqIRhuou-4" value="" style="rounded=0;whiteSpace=wrap;html=1;" vertex="1" parent="uj3ujpY_ph7ZhqIRhuou-1">
          <mxGeometry x="10" y="120" width="810" height="70" as="geometry" />
        </mxCell>
      </root>
    </mxGraphModel>
  </diagram>
</mxfile>
